<svg xmlns="http://www.w3.org/2000/svg" width="32" height="32" viewBox="0 0 32 32" fill="none">
  <path d="M9.94702 25.7871H7.38696C3.46696 25.5071 1.70703 22.4938 1.70703 19.8138C1.70703 17.1338 3.46698 14.1071 7.32031 13.8404C7.86698 13.7871 8.34696 14.2138 8.38696 14.7738C8.42696 15.3204 8.01369 15.8004 7.45369 15.8404C4.86703 16.0271 3.70703 17.9738 3.70703 19.8271C3.70703 21.6804 4.86703 23.6271 7.45369 23.8138H9.94702C10.4937 23.8138 10.947 24.2671 10.947 24.8138C10.947 25.3604 10.4937 25.7871 9.94702 25.7871Z" fill="currentColor"/>
  <path d="M22.2252 25.786C22.1986 25.786 22.1852 25.786 22.1586 25.786C21.6119 25.786 21.1053 25.3327 21.1053 24.786C21.1053 24.2127 21.5319 23.786 22.0919 23.786C23.7319 23.786 25.1986 23.2127 26.3453 22.186C28.4253 20.3727 28.5586 17.7594 27.9986 15.9194C27.4386 14.0927 25.8786 11.9994 23.1586 11.666C22.7186 11.6127 22.3719 11.2794 22.2919 10.8394C21.7585 7.63936 20.0386 5.42602 17.4253 4.62602C14.7319 3.78602 11.5852 4.61269 9.62521 6.66602C7.71854 8.65269 7.27855 11.4394 8.38522 14.506C8.57189 15.026 8.30529 15.5993 7.78529 15.786C7.26529 15.9727 6.69192 15.706 6.50526 15.186C5.15859 11.426 5.77194 7.82602 8.18527 5.29269C10.6519 2.70602 14.6119 1.67934 18.0119 2.71934C21.1319 3.67934 23.3319 6.25268 24.1319 9.82601C26.8519 10.4393 29.0386 12.506 29.9052 15.3594C30.8519 18.466 29.9986 21.666 27.6653 23.6927C26.1853 25.026 24.2519 25.786 22.2252 25.786Z" fill="currentColor"/>
  <path d="M15.9987 29.7064C13.3187 29.7064 10.8121 28.2797 9.43872 25.973C9.29205 25.7464 9.14539 25.4797 9.02539 25.1864C8.57206 24.2397 8.33203 23.1597 8.33203 22.0397C8.33203 17.813 11.772 14.373 15.9987 14.373C20.2254 14.373 23.6654 17.813 23.6654 22.0397C23.6654 23.173 23.4254 24.2397 22.9454 25.2264C22.8387 25.4797 22.6921 25.7464 22.5321 25.9997C21.1854 28.2797 18.6787 29.7064 15.9987 29.7064ZM15.9987 16.373C12.8787 16.373 10.332 18.9197 10.332 22.0397C10.332 22.8664 10.5054 23.6397 10.8387 24.3464C10.9454 24.573 11.0387 24.7597 11.1453 24.933C12.1587 26.653 14.012 27.7064 15.9854 27.7064C17.9587 27.7064 19.812 26.653 20.812 24.9597C20.932 24.7597 21.0387 24.573 21.1187 24.3864C21.4787 23.653 21.652 22.8797 21.652 22.053C21.6654 18.9197 19.1187 16.373 15.9987 16.373Z" fill="currentColor"/>
  <path d="M15.2386 24.3604C14.9852 24.3604 14.7319 24.2671 14.5319 24.0671L13.2119 22.7471C12.8252 22.3604 12.8252 21.7204 13.2119 21.3338C13.5985 20.9471 14.2385 20.9471 14.6252 21.3338L15.2653 21.9738L17.3986 20.0004C17.8119 19.6271 18.4386 19.6538 18.8119 20.0538C19.1852 20.4538 19.1586 21.0938 18.7586 21.4671L15.9186 24.0938C15.7186 24.2671 15.4786 24.3604 15.2386 24.3604Z" fill="currentColor"/>
</svg>