<svg xmlns="http://www.w3.org/2000/svg" width="20" height="20" viewBox="0 0 20 20" fill="none">
  <path d="M16.8299 2.30785L13.4686 5.66909V4.54176C13.4686 3.96772 13.0053 3.50434 12.4312 3.50434C11.8572 3.50434 11.3938 3.96772 11.3938 4.54176V8.17273C11.3938 8.30413 11.4215 8.43554 11.4699 8.55311C11.4699 8.56003 11.4699 8.56695 11.4768 8.56695C11.5805 8.82284 11.788 9.02341 12.0439 9.13407C12.0508 9.13407 12.0577 9.13407 12.0577 9.14098C12.1753 9.1894 12.2998 9.21706 12.4381 9.21706H16.0691C16.6431 9.21706 17.1065 8.75368 17.1065 8.17964C17.1065 7.6056 16.6431 7.14222 16.0691 7.14222H14.9349L18.2961 3.78098C18.7041 3.37293 18.7041 2.7159 18.2961 2.31477C17.888 1.91363 17.2379 1.8998 16.8299 2.30785Z" fill="black"/>
  <path d="M2.30604 18.2959C2.50661 18.4965 2.77634 18.6002 3.03915 18.6002C3.30196 18.6002 3.57169 18.4965 3.77226 18.2959L7.1335 14.9347V16.062C7.1335 16.6361 7.59688 17.0994 8.17092 17.0994C8.74495 17.0994 9.20833 16.6361 9.20833 16.062V12.4311C9.20833 12.2996 9.18067 12.1682 9.13226 12.0507C9.13226 12.0438 9.13226 12.0368 9.12534 12.0368C9.0216 11.7809 8.81412 11.5804 8.55822 11.4697C8.5513 11.4697 8.54439 11.4697 8.54439 11.4628C8.42681 11.4144 8.30232 11.3867 8.164 11.3867H4.53995C3.96591 11.3867 3.50253 11.8501 3.50253 12.4241C3.50253 12.9982 3.96591 13.4616 4.53995 13.4616H5.66728L2.30604 16.8228C1.89799 17.2378 1.89799 17.8879 2.30604 18.2959Z" fill="black"/>
  <path d="M14.9347 13.4694H16.062C16.6361 13.4694 17.0994 13.006 17.0994 12.432C17.0994 11.8579 16.6361 11.3945 16.062 11.3945H12.4311C12.2996 11.3945 12.1682 11.4222 12.0507 11.4706C12.0438 11.4706 12.0368 11.4706 12.0368 11.4775C11.7809 11.5813 11.5804 11.7888 11.4697 12.0446C11.4697 12.0516 11.4697 12.0585 11.4628 12.0585C11.4144 12.1761 11.3867 12.3005 11.3867 12.4389V16.0698C11.3867 16.6439 11.8501 17.1073 12.4241 17.1073C12.9982 17.1073 13.4616 16.6439 13.4616 16.0698V14.9356L16.8228 18.2968C17.0234 18.4974 17.2931 18.6011 17.5559 18.6011C17.8187 18.6011 18.0884 18.4974 18.289 18.2968C18.6971 17.8888 18.6971 17.2317 18.289 16.8306L14.9347 13.4694Z" fill="black"/>
  <path d="M8.17077 3.50253C7.59673 3.50253 7.13335 3.96591 7.13335 4.53995V5.66728L3.77211 2.30604C3.36406 1.89799 2.70703 1.89799 2.30589 2.30604C1.90476 2.71409 1.89784 3.37112 2.30589 3.77226L5.66713 7.1335H4.5398C3.96576 7.1335 3.50238 7.59688 3.50238 8.17092C3.50238 8.74495 3.96576 9.20833 4.5398 9.20833H8.17077C8.30218 9.20833 8.43358 9.18067 8.55116 9.13226C8.55807 9.13226 8.56499 9.13226 8.56499 9.12534C8.82089 9.0216 9.02145 8.81412 9.13211 8.55822C9.13211 8.5513 9.13211 8.54439 9.13903 8.54439C9.18744 8.42681 9.2151 8.30232 9.2151 8.164V4.53995C9.20819 3.97283 8.74481 3.50253 8.17077 3.50253Z" fill="black"/>
</svg>