<svg width="22" height="22" viewBox="0 0 22 22" fill="none" xmlns="http://www.w3.org/2000/svg">
<rect width="22" height="22" rx="11" fill="currentColor" fill-opacity="0.48"/>
<path d="M12.0507 10.9975L15.2715 7.78398C15.5652 7.49025 15.5652 7.01402 15.2715 6.7203C14.9778 6.42657 14.5016 6.42657 14.2079 6.7203L10.9946 9.94131L7.78126 6.7203C7.48755 6.42657 7.01136 6.42657 6.71765 6.7203C6.42395 7.01402 6.42395 7.49025 6.71765 7.78398L9.93844 10.9975L6.71765 14.211C6.57585 14.3517 6.49609 14.5431 6.49609 14.7429C6.49609 14.9426 6.57585 15.1341 6.71765 15.2747C6.85829 15.4165 7.04974 15.4963 7.24946 15.4963C7.44917 15.4963 7.64062 15.4165 7.78126 15.2747L10.9946 12.0537L14.2079 15.2747C14.3485 15.4165 14.5399 15.4963 14.7397 15.4963C14.9394 15.4963 15.1308 15.4165 15.2715 15.2747C15.4133 15.1341 15.493 14.9426 15.493 14.7429C15.493 14.5431 15.4133 14.3517 15.2715 14.211L12.0507 10.9975Z" fill="white"/>
</svg>
