<svg xmlns="http://www.w3.org/2000/svg" width="18" height="18" viewBox="0 0 18 18" fill="none">
    <path
        d="M9 14.0625C8.6925 14.0625 8.4375 13.8075 8.4375 13.5V11.25C8.4375 10.9425 8.6925 10.6875 9 10.6875C9.3075 10.6875 9.5625 10.9425 9.5625 11.25V13.5C9.5625 13.8075 9.3075 14.0625 9 14.0625Z"
        fill="#141414" />
    <path
        d="M13.1997 16.92H4.79973C3.43473 16.92 2.18973 15.87 1.96473 14.5275L0.967226 8.54999C0.802226 7.61999 1.25973 6.42749 2.00223 5.83499L7.19973 1.67249C8.20473 0.862489 9.78723 0.869989 10.7997 1.67999L15.9972 5.83499C16.7322 6.42749 17.1822 7.61999 17.0322 8.54999L16.0347 14.52C15.8097 15.8475 14.5347 16.92 13.1997 16.92ZM8.99223 2.19749C8.59473 2.19749 8.19723 2.31749 7.90473 2.54999L2.70723 6.71999C2.28723 7.05749 1.98723 7.83749 2.07723 8.36999L3.07473 14.34C3.20973 15.1275 3.99723 15.795 4.79973 15.795H13.1997C14.0022 15.795 14.7897 15.1275 14.9247 14.3325L15.9222 8.36249C16.0047 7.83749 15.7047 7.04249 15.2922 6.71249L10.0947 2.55749C9.79473 2.31749 9.38973 2.19749 8.99223 2.19749Z"
        fill="#141414" />
</svg>