<svg xmlns="http://www.w3.org/2000/svg" width="28" height="29" viewBox="0 0 28 29" fill="none">
  <path opacity="0.4" d="M25.6666 10.0218V17.1268L23.7649 15.4935C22.8549 14.7118 21.3849 14.7118 20.4749 15.4935L15.6216 19.6585C14.7116 20.4402 13.2416 20.4402 12.3316 19.6585L11.9349 19.3318C11.1066 18.6085 9.78825 18.5385 8.85492 19.1685L3.11492 23.0185L2.98659 23.1118C2.55492 22.1785 2.33325 21.0702 2.33325 19.7985V10.0218C2.33325 5.77517 4.86492 3.2435 9.11159 3.2435H18.8883C23.1349 3.2435 25.6666 5.77517 25.6666 10.0218Z" fill="#141414"/>
  <path d="M10.5001 13.0202C12.0336 13.0202 13.2767 11.777 13.2767 10.2435C13.2767 8.70998 12.0336 7.46683 10.5001 7.46683C8.96654 7.46683 7.72339 8.70998 7.72339 10.2435C7.72339 11.777 8.96654 13.0202 10.5001 13.0202Z" fill="#141414"/>
  <path d="M25.6666 17.1268V19.7985C25.6666 24.0451 23.1349 26.5768 18.8882 26.5768H9.11157C6.13657 26.5768 3.98991 25.3285 2.98657 23.1118L3.11491 23.0185L8.85491 19.1685C9.78824 18.5385 11.1066 18.6085 11.9349 19.3318L12.3316 19.6585C13.2416 20.4401 14.7116 20.4401 15.6216 19.6585L20.4749 15.4935C21.3849 14.7118 22.8549 14.7118 23.7649 15.4935L25.6666 17.1268Z" fill="#141414"/>
</svg>