<svg width="22" height="22" viewBox="0 0 22 22" fill="none" xmlns="http://www.w3.org/2000/svg">
<path d="M9.16536 4.1237V16.4987C9.16536 17.4887 8.76202 18.3962 8.12035 19.0562L8.0837 19.0929C8.0012 19.1754 7.90954 19.2579 7.82704 19.322C7.55204 19.5604 7.24035 19.7437 6.91952 19.872C6.81869 19.9179 6.71787 19.9545 6.61703 19.9912C6.25953 20.1104 5.87453 20.1654 5.4987 20.1654C5.2512 20.1654 5.00371 20.1379 4.76538 20.092C4.64621 20.0645 4.52703 20.037 4.40786 20.0004C4.2612 19.9545 4.1237 19.9087 3.9862 19.8445C3.9862 19.8354 3.98619 19.8354 3.97703 19.8445C3.72036 19.7162 3.47287 19.5695 3.24371 19.3954L3.23453 19.3862C3.11536 19.2945 3.00538 19.2029 2.90454 19.0929C2.80371 18.9829 2.70286 18.8729 2.60203 18.7537C2.42786 18.5245 2.2812 18.277 2.15287 18.0204C2.16204 18.0112 2.16204 18.0112 2.15287 18.0112C2.15287 18.0112 2.15286 18.002 2.14369 17.9929C2.08869 17.8645 2.04286 17.727 1.99702 17.5895C1.96036 17.4704 1.93285 17.3512 1.90535 17.232C1.85952 16.9937 1.83203 16.7462 1.83203 16.4987V4.1237C1.83203 2.7487 2.7487 1.83203 4.1237 1.83203H6.8737C8.2487 1.83203 9.16536 2.7487 9.16536 4.1237Z" stroke="#292D32" stroke-width="1.5" stroke-linecap="round" stroke-linejoin="round"/>
<path d="M20.1667 15.1237V17.8737C20.1667 19.2487 19.25 20.1654 17.875 20.1654H5.5C5.87583 20.1654 6.26083 20.1104 6.61833 19.9912C6.71917 19.9545 6.81999 19.9179 6.92082 19.872C7.24166 19.7437 7.55334 19.5604 7.82834 19.322C7.91084 19.2579 8.00251 19.1754 8.08501 19.0929L8.12165 19.0562L14.355 12.832H17.875C19.25 12.832 20.1667 13.7487 20.1667 15.1237Z" stroke="#292D32" stroke-width="1.5" stroke-linecap="round" stroke-linejoin="round"/>
<path d="M4.41084 20.0007C3.86084 19.8357 3.33835 19.5332 2.90752 19.0932C2.46752 18.6623 2.165 18.1398 2 17.5898C2.3575 18.7357 3.265 19.6432 4.41084 20.0007Z" stroke="#292D32" stroke-width="1.5" stroke-linecap="round" stroke-linejoin="round"/>
<path d="M16.8386 10.3507L14.3544 12.8348L8.12109 19.059C8.76276 18.399 9.16611 17.4915 9.16611 16.5015V7.6465L11.6503 5.16234C12.6219 4.19068 13.9236 4.19068 14.8953 5.16234L16.8386 7.10567C17.8103 8.07734 17.8103 9.379 16.8386 10.3507Z" stroke="#292D32" stroke-width="1.5" stroke-linecap="round" stroke-linejoin="round"/>
<path d="M5.4987 17.4154C6.00496 17.4154 6.41536 17.005 6.41536 16.4987C6.41536 15.9924 6.00496 15.582 5.4987 15.582C4.99244 15.582 4.58203 15.9924 4.58203 16.4987C4.58203 17.005 4.99244 17.4154 5.4987 17.4154Z" stroke="#292D32" stroke-width="1.5" stroke-linecap="round" stroke-linejoin="round"/>
</svg>
