<svg xmlns="http://www.w3.org/2000/svg" width="24" height="24" viewBox="0 0 24 24" fill="none">
<path d="M15.5819 11.9999C15.5819 13.9799 13.9819 15.5799 12.0019 15.5799C10.0219 15.5799 8.42188 13.9799 8.42188 11.9999C8.42188 10.0199 10.0219 8.41992 12.0019 8.41992C13.9819 8.41992 15.5819 10.0199 15.5819 11.9999Z" stroke="#141414" stroke-width="1.5" stroke-linecap="round" stroke-linejoin="round"/>
<path d="M12.0037 20.2707C15.5337 20.2707 18.8238 18.1907 21.1138 14.5907C22.0138 13.1807 22.0138 10.8107 21.1138 9.4007C18.8238 5.8007 15.5337 3.7207 12.0037 3.7207C8.47375 3.7207 5.18375 5.8007 2.89375 9.4007C1.99375 10.8107 1.99375 13.1807 2.89375 14.5907C5.18375 18.1907 8.47375 20.2707 12.0037 20.2707Z" stroke="#141414" stroke-width="1.5" stroke-linecap="round" stroke-linejoin="round"/>
</svg>