<svg width="24" height="24" viewBox="0 0 24 24" fill="none" xmlns="http://www.w3.org/2000/svg">
<path d="M5.40003 16.25H7.15005C7.92326 16.25 8.55009 16.8768 8.55009 17.65V19.4001C8.55009 20.1733 7.92326 20.8001 7.15005 20.8001H5.40003C4.62683 20.8001 4 20.1733 4 19.4001V17.65C4 16.8768 4.62683 16.25 5.40003 16.25Z" fill="#16362F"/>
<path d="M17.6503 16.25H19.4003C20.1735 16.25 20.8003 16.8768 20.8003 17.65V19.4001C20.8003 20.1733 20.1735 20.8001 19.4003 20.8001H17.6503C16.8771 20.8001 16.2502 20.1733 16.2502 19.4001V17.65C16.2502 16.8768 16.8771 16.25 17.6503 16.25Z" fill="#16362F"/>
<path d="M5.40003 10.1248H7.15005C7.92326 10.1248 8.55009 10.7516 8.55009 11.5248V13.2748C8.55009 14.048 7.92326 14.6748 7.15005 14.6748H5.40003C4.62683 14.6748 4 14.048 4 13.2748V11.5248C4 10.7516 4.62683 10.1248 5.40003 10.1248Z" fill="#16362F"/>
<path d="M17.6503 10.1248H19.4003C20.1735 10.1248 20.8003 10.7516 20.8003 11.5248V13.2748C20.8003 14.048 20.1735 14.6748 19.4003 14.6748H17.6503C16.8771 14.6748 16.2502 14.048 16.2502 13.2748V11.5248C16.2502 10.7516 16.8771 10.1248 17.6503 10.1248Z" fill="#16362F"/>
<path d="M5.40003 4H7.15005C7.92326 4 8.55009 4.62683 8.55009 5.40003V7.15005C8.55009 7.92326 7.92326 8.55009 7.15005 8.55009H5.40003C4.62683 8.55009 4 7.92326 4 7.15005V5.40003C4 4.62683 4.62683 4 5.40003 4Z" fill="#16362F"/>
<path d="M11.525 16.25H13.2751C14.0483 16.25 14.6751 16.8768 14.6751 17.65V19.4001C14.6751 20.1733 14.0483 20.8001 13.2751 20.8001H11.525C10.7518 20.8001 10.125 20.1733 10.125 19.4001V17.65C10.125 16.8768 10.7518 16.25 11.525 16.25Z" fill="#16362F"/>
<path d="M11.525 10.1248H13.2751C14.0483 10.1248 14.6751 10.7516 14.6751 11.5248V13.2748C14.6751 14.048 14.0483 14.6748 13.2751 14.6748H11.525C10.7518 14.6748 10.125 14.048 10.125 13.2748V11.5248C10.125 10.7516 10.7518 10.1248 11.525 10.1248Z" fill="#16362F"/>
<path d="M11.525 4H13.2751C14.0483 4 14.6751 4.62683 14.6751 5.40003V7.15005C14.6751 7.92326 14.0483 8.55009 13.2751 8.55009H11.525C10.7518 8.55009 10.125 7.92326 10.125 7.15005V5.40003C10.125 4.62683 10.7518 4 11.525 4Z" fill="#16362F"/>
<path d="M17.6503 4H19.4003C20.1735 4 20.8003 4.62683 20.8003 5.40003V7.15005C20.8003 7.92326 20.1735 8.55009 19.4003 8.55009H17.6503C16.8771 8.55009 16.2502 7.92326 16.2502 7.15005V5.40003C16.2502 4.62683 16.8771 4 17.6503 4Z" fill="#16362F"/>
</svg>
